<svg width="114" height="55" viewBox="0 0 114 55" fill="none" xmlns="http://www.w3.org/2000/svg">
<circle cx="27.5" cy="27.5" r="27.5" fill="#D9D9D9"/>
<circle cx="86.5" cy="27.5" r="27.5" fill="#D9D9D9"/>
<path d="M83.0003 33.9713V36.3814C83.0003 36.5903 83.2269 36.7057 83.38 36.5778L96.6477 25.5998C96.7604 25.507 96.8517 25.3881 96.9144 25.2522C96.9771 25.1163 97.0098 24.967 97.0098 24.8157C97.0098 24.6644 96.9771 24.5151 96.9144 24.3792C96.8517 24.2433 96.7604 24.1244 96.6477 24.0316L83.38 13.0536C83.224 12.9257 83.0003 13.0411 83.0003 13.25V15.6601C83.0003 15.8129 83.068 15.9594 83.1798 16.0529L93.7752 24.8141L83.1798 33.5785C83.068 33.672 83.0003 33.8185 83.0003 33.9713Z" fill="black"/>
<path d="M31.3908 18.546V16.3688C31.3908 16.1801 31.158 16.0759 31.0008 16.1914L17.3719 26.1083C17.2561 26.1922 17.1624 26.2996 17.098 26.4223C17.0335 26.5451 17 26.68 17 26.8166C17 26.9533 17.0335 27.0881 17.098 27.2109C17.1624 27.3336 17.2561 27.4411 17.3719 27.525L31.0008 37.4418C31.161 37.5573 31.3908 37.4531 31.3908 37.2644V35.0872C31.3908 34.9492 31.3212 34.8169 31.2063 34.7324L20.3226 26.818L31.2063 18.9009C31.3212 18.8164 31.3908 18.684 31.3908 18.546Z" fill="black"/>
</svg>
