<svg width="114" height="55" viewBox="0 0 114 55" fill="none" xmlns="http://www.w3.org/2000/svg">
<circle cx="27.5" cy="27.5" r="27.5" fill="#D9D9D9"/>
<circle cx="86.5" cy="27.5" r="27.5" fill="#D9D9D9"/>
<path d="M81.0003 33.9713V36.3814C81.0003 36.5903 81.2269 36.7057 81.38 36.5778L94.6477 25.5998C94.7604 25.507 94.8517 25.3881 94.9144 25.2522C94.9771 25.1163 95.0098 24.967 95.0098 24.8157C95.0098 24.6644 94.9771 24.5151 94.9144 24.3792C94.8517 24.2433 94.7604 24.1244 94.6477 24.0316L81.38 13.0536C81.224 12.9257 81.0003 13.0411 81.0003 13.25V15.6601C81.0003 15.8129 81.068 15.9594 81.1798 16.0529L91.7752 24.8141L81.1798 33.5785C81.068 33.672 81.0003 33.8185 81.0003 33.9713Z" fill="black"/>
<path d="M29.3908 18.546V16.3688C29.3908 16.1801 29.158 16.0759 29.0008 16.1914L15.3719 26.1083C15.2561 26.1922 15.1624 26.2996 15.098 26.4223C15.0335 26.5451 15 26.68 15 26.8166C15 26.9533 15.0335 27.0881 15.098 27.2109C15.1624 27.3336 15.2561 27.4411 15.3719 27.525L29.0008 37.4418C29.161 37.5573 29.3908 37.4531 29.3908 37.2644V35.0872C29.3908 34.9492 29.3212 34.8169 29.2063 34.7324L18.3226 26.818L29.2063 18.9009C29.3212 18.8164 29.3908 18.684 29.3908 18.546Z" fill="black"/>
</svg>
