<svg width="114" height="55" viewBox="0 0 114 55" fill="none" xmlns="http://www.w3.org/2000/svg">
<circle cx="27.5" cy="27.5" r="27.5" fill="#D9D9D9"/>
<circle cx="86.5" cy="27.5" r="27.5" fill="#D9D9D9"/>
<path d="M83.0003 35.9713V38.3814C83.0003 38.5903 83.2269 38.7057 83.38 38.5778L96.6477 27.5998C96.7604 27.507 96.8517 27.3881 96.9144 27.2522C96.9771 27.1163 97.0098 26.967 97.0098 26.8157C97.0098 26.6644 96.9771 26.5151 96.9144 26.3792C96.8517 26.2433 96.7604 26.1244 96.6477 26.0316L83.38 15.0536C83.224 14.9257 83.0003 15.0411 83.0003 15.25V17.6601C83.0003 17.8129 83.068 17.9594 83.1798 18.0529L93.7752 26.8141L83.1798 35.5785C83.068 35.672 83.0003 35.8185 83.0003 35.9713Z" fill="black"/>
<path d="M31.3908 20.546V18.3688C31.3908 18.1801 31.158 18.0759 31.0008 18.1914L17.3719 28.1083C17.2561 28.1922 17.1624 28.2996 17.098 28.4223C17.0335 28.5451 17 28.68 17 28.8166C17 28.9533 17.0335 29.0881 17.098 29.2109C17.1624 29.3336 17.2561 29.4411 17.3719 29.525L31.0008 39.4418C31.161 39.5573 31.3908 39.4531 31.3908 39.2644V37.0872C31.3908 36.9492 31.3212 36.8169 31.2063 36.7324L20.3226 28.818L31.2063 20.9009C31.3212 20.8164 31.3908 20.684 31.3908 20.546Z" fill="black"/>
</svg>
