<svg width="42" height="36" viewBox="0 0 42 36" fill="none" xmlns="http://www.w3.org/2000/svg">
<path d="M21 13.8668L18.6532 9.29973C18.0705 8.16881 17.0599 6.54263 15.6292 5.22791C14.2222 3.9336 12.537 3.05287 10.5 3.05287C6.1005 3.05287 2.625 6.43796 2.625 10.5072C2.625 13.5988 4.07925 15.7815 7.5285 19.1104C8.41313 19.963 9.42112 20.8846 10.5367 21.9007C13.4452 24.5557 17.0625 27.8591 21 32.2755C24.9375 27.8591 28.5548 24.5557 31.4632 21.9007C32.5789 20.8846 33.5895 19.9605 34.4715 19.1104C37.9207 15.7815 39.375 13.5988 39.375 10.5072C39.375 6.43796 35.8995 3.05287 31.5 3.05287C29.4604 3.05287 27.7777 3.9336 26.3707 5.22791C24.9401 6.54263 23.9295 8.16881 23.3468 9.29973L21 13.8668ZM22.029 35.0352C21.9026 35.1808 21.745 35.2978 21.5673 35.3781C21.3896 35.4584 21.196 35.5 21 35.5C20.804 35.5 20.6104 35.4584 20.4327 35.3781C20.255 35.2978 20.0974 35.1808 19.971 35.0352C15.7684 30.1796 11.9648 26.7077 8.83313 23.8511C3.4125 18.9011 0 15.7891 0 10.5072C0 4.98028 4.69875 0.5 10.5 0.5C14.7 0.5 17.6374 3.18051 19.4355 5.62615C20.118 6.55795 20.6378 7.45401 21 8.1586C21.4541 7.27676 21.9771 6.43013 22.5645 5.62615C24.3626 3.17796 27.3 0.5 31.5 0.5C37.3013 0.5 42 4.98028 42 10.5072C42 15.7891 38.5875 18.9011 33.1669 23.8511C30.0353 26.7103 26.2316 30.1847 22.029 35.0352Z" fill="black"/>
</svg>
