<svg width="41" height="31" viewBox="0 0 41 31" fill="none" xmlns="http://www.w3.org/2000/svg">
<path d="M20.5 1.9375C10.5943 1.9375 2.5625 8.01035 2.5625 15.5C2.5625 22.9896 10.5943 29.0625 20.5 29.0625C30.4057 29.0625 38.4375 22.9896 38.4375 15.5C38.4375 8.01035 30.4057 1.9375 20.5 1.9375ZM28.1875 16.2266C28.1875 16.3598 28.0434 16.4688 27.8672 16.4688H21.7812V21.0703C21.7812 21.2035 21.6371 21.3125 21.4609 21.3125H19.5391C19.3629 21.3125 19.2188 21.2035 19.2188 21.0703V16.4688H13.1328C12.9566 16.4688 12.8125 16.3598 12.8125 16.2266V14.7734C12.8125 14.6402 12.9566 14.5312 13.1328 14.5312H19.2188V9.92969C19.2188 9.79648 19.3629 9.6875 19.5391 9.6875H21.4609C21.6371 9.6875 21.7812 9.79648 21.7812 9.92969V14.5312H27.8672C28.0434 14.5312 28.1875 14.6402 28.1875 14.7734V16.2266Z" fill="#693A76"/>
</svg>
