<svg width="15" height="22" viewBox="0 0 15 22" fill="none" xmlns="http://www.w3.org/2000/svg">
<path d="M14.3908 2.54574V0.368597C14.3908 0.179892 14.158 0.0756821 14.0008 0.191158L0.371904 10.108C0.256108 10.1919 0.16241 10.2993 0.0979574 10.4221C0.0335046 10.5449 0 10.6797 0 10.8164C0 10.953 0.0335046 11.0879 0.0979574 11.2106C0.16241 11.3334 0.256108 11.4408 0.371904 11.5247L14.0008 21.4416C14.161 21.5571 14.3908 21.4528 14.3908 21.2641V19.087C14.3908 18.949 14.3212 18.8166 14.2063 18.7321L3.3226 10.8178L14.2063 2.90062C14.3212 2.81613 14.3908 2.68375 14.3908 2.54574Z" fill="black"/>
</svg>
