<svg width="14" height="24" viewBox="0 0 14 24" fill="none" xmlns="http://www.w3.org/2000/svg">
<path d="M0.000300407 20.9713V23.3814C0.000300407 23.5903 0.226924 23.7057 0.379969 23.5778L13.6477 12.5998C13.7604 12.507 13.8517 12.3881 13.9144 12.2522C13.9771 12.1163 14.0098 11.967 14.0098 11.8157C14.0098 11.6644 13.9771 11.5151 13.9144 11.3792C13.8517 11.2433 13.7604 11.1244 13.6477 11.0316L0.379969 0.0535583C0.223981 -0.0742741 0.000300407 0.0410862 0.000300407 0.249983V2.66009C0.000300407 2.81287 0.0679922 2.95941 0.179832 3.05294L10.7752 11.8141L0.179832 20.5785C0.0679922 20.672 0.000300407 20.8185 0.000300407 20.9713Z" fill="black"/>
</svg>
